<?xml version="1.0" encoding="UTF-8"?><svg id="Layer_1" xmlns="http://www.w3.org/2000/svg" viewBox="0 0 512 512"><defs><style>.cls-1{fill:#fff;}</style></defs><path class="cls-1" d="M392.29,208.14l-40.54,235.96c-1.26,7.32-7.61,12.68-15.04,12.68h-95.75s-95.75,0-95.75,0c-7.43,0-13.78-5.35-15.04-12.68l-40.54-235.96c-1.6-9.32,5.58-17.84,15.04-17.84H377.25c9.46,0,16.64,8.52,15.04,17.84Z"/><path class="cls-1" d="M366.57,88.63h0c.77-8.39-5.41-15.82-13.8-16.6l-181.93-16.74c-8.39-.77-15.82,5.41-16.6,13.8h0c-.77,8.39-8.2,14.57-16.6,13.8l-58.06-5.34c-8.39-.77-15.82,5.41-16.6,13.8l-3.23,35.07c-.77,8.39,5.41,15.82,13.8,16.6l358.83,33.02c8.39,.77,15.82-5.41,16.6-13.8l3.23-35.07c.77-8.39-5.41-15.82-13.8-16.6l-58.06-5.34c-8.39-.77-14.57-8.2-13.8-16.6Z"/></svg>