<?xml version="1.0" encoding="UTF-8"?><svg id="a" xmlns="http://www.w3.org/2000/svg" viewBox="0 0 100 100"><defs><style>.b{fill:#fff;}</style></defs><path class="b" d="M7.34,64.3C7.34,37.81,24.94,9.97,53.84,9.97c12.34,0,17.61,4.67,26.49,4.67,3.76,0,7.67-.45,12.34-2.56-2.11,10.08-3.61,19.11-4.82,27.24-4.06,28.74-5.57,40.33,.45,46.65-6.77,3.16-13.54,3.61-18.06,3.46-9.78-.15-15.2-3.91-15.05-13.69-7.98,11.74-17.91,14.3-24.83,14.3-6.02,0-23.02-1.81-23.02-25.73Zm36.27,6.02c6.32,0,13.24-9.03,15.95-25.58l2.86-19.86c-18.36-5.12-25.13,21.37-25.13,35.36,0,7.37,2.56,10.08,6.32,10.08Z"/></svg>