<?xml version="1.0" encoding="UTF-8"?><svg id="a" xmlns="http://www.w3.org/2000/svg" viewBox="0 0 343.56 118.96"><defs><style>.c{fill:#fff;}</style></defs><g id="b"><path class="c" d="M3.42,90.2c0-26.49,17.61-54.32,46.5-54.32,12.34,0,17.61,4.67,26.49,4.67,3.76,0,7.67-.45,12.34-2.56-2.11,10.08-3.61,19.11-4.82,27.24-4.06,28.74-5.57,40.33,.45,46.65-6.77,3.16-13.54,3.61-18.06,3.46-9.78-.15-15.2-3.91-15.05-13.69-7.98,11.74-17.91,14.3-24.83,14.3-6.02,0-23.02-1.81-23.02-25.73Zm36.27,6.02c6.32,0,13.24-9.03,15.95-25.58l2.86-19.86c-18.36-5.12-25.13,21.37-25.13,35.36,0,7.37,2.56,10.08,6.32,10.08Z"/><path class="c" d="M91.91,112.62c6.47-35.96,9.18-64.56,9.63-74.64,4.51,2.11,12.34,3.91,17.76,3.91,9.93,0,17.46-6.02,29.49-6.02,13.84,0,18.21,7.22,18.21,14.6,0,10.08-6.47,20.17-18.66,20.17-3.31,0-7.22-.6-10.08-2.71,3.16-6.02,5.72-17.46-1.05-17.46-2.71,0-6.32,1.35-9.03,4.82-2.86,17.61-4.36,35.06-6.47,52.52-.6,5.27-9.78,7.52-17.76,7.52-4.66,0-9.18-.9-12.04-2.71Z"/><path class="c" d="M166.84,112.62c6.47-35.96,9.18-64.56,9.63-74.64,4.51,2.11,12.34,3.91,17.76,3.91,9.93,0,17.46-6.02,29.49-6.02,13.84,0,18.21,7.22,18.21,14.6,0,10.08-6.47,20.17-18.66,20.17-3.31,0-7.22-.6-10.08-2.71,3.16-6.02,5.72-17.46-1.05-17.46-2.71,0-6.32,1.35-9.03,4.82-2.86,17.61-4.36,35.06-6.47,52.52-.6,5.27-9.78,7.52-17.76,7.52-4.67,0-9.18-.9-12.04-2.71Z"/><path class="c" d="M243.59,93.21c5.57-35.36,7.83-46.95,2.11-53.27,6.92-3.16,13.54-3.61,18.06-3.46,11.74,.15,17,5.57,14.3,20.47-1.35,6.92-2.26,13.69-3.31,20.62-2.71,16.25-4.36,27.84,1.81,31.15-5.72,6.17-14.15,7.22-18.66,7.22-11.74,0-16.85-6.32-14.3-22.72ZM270.83,3.37c9.18,0,15.95,4.97,14.6,14.75s-9.63,14.75-18.81,14.75-15.95-4.97-14.6-14.75,9.63-14.75,18.81-14.75Z"/><path class="c" d="M283.77,112.62c1.66-9.03,4.97-28.59,7.37-45.75l1.2-9.03h-7.07c-3.01-1.5,.15-19.56,6.47-19.56h2.86c.3-2.71,.6-5.27,1.05-8.13,2.11-14.9,10.83-27.39,26.03-27.39,10.53,0,19.41,5.57,18.06,18.51-1.2-.75-3.31-1.5-5.87-1.5-5.87,0-9.48,4.82-10.99,15.95l-.3,2.56h13.09c3.01,1.5-.15,19.56-6.47,19.56h-9.33c-2.26,17.3-4.97,38.37-6.32,49.96-.6,5.27-9.78,7.52-17.76,7.52-4.66,0-9.18-.9-12.04-2.71Z"/></g></svg>