<?xml version="1.0" encoding="UTF-8"?><svg id="Layer_1" xmlns="http://www.w3.org/2000/svg" viewBox="0 0 512 512"><defs><style>.cls-1{fill:#fff;}</style></defs><rect class="cls-1" x="212" y="56.98" width="88" height="265.47" rx="44" ry="44"/><rect class="cls-1" x="212" y="367.02" width="88" height="88" rx="44" ry="44"/><path class="cls-1" d="M139.49,453.61h-63.67c-19.33,0-35-15.67-35-35V93.39c0-19.33,15.67-35,35-35h63.67c19.33,0,35,15.67,35,35s-15.67,35-35,35h-28.67v255.22h28.67c19.33,0,35,15.67,35,35s-15.67,35-35,35Z"/><path class="cls-1" d="M436.17,453.61h-63.67c-19.33,0-35-15.67-35-35s15.67-35,35-35h28.67V128.39h-28.67c-19.33,0-35-15.67-35-35s15.67-35,35-35h63.67c19.33,0,35,15.67,35,35V418.61c0,19.33-15.67,35-35,35Z"/></svg>